<svg width="101" height="33" viewBox="0 0 101 33" fill="none" xmlns="http://www.w3.org/2000/svg">
<path d="M13.792 1.672C13.856 1.656 13.968 1.648 14.128 1.648C14.352 1.648 14.544 1.696 14.704 1.792C14.864 1.888 14.944 2.04 14.944 2.248C14.944 2.488 14.8 2.696 14.512 2.872C14.24 3.048 13.944 3.176 13.624 3.256C12.472 3.576 11.376 3.8 10.336 3.928C10.096 6.312 9.72 8.76 9.208 11.272C8.712 13.768 8.088 16.416 7.336 19.216C8.84 19.184 9.96 19.128 10.696 19.048C11.224 19 11.488 19.136 11.488 19.456C11.488 19.696 11.352 19.952 11.08 20.224C10.808 20.48 10.52 20.624 10.216 20.656C7.992 20.944 5.896 21.088 3.928 21.088C2.856 21.088 1.808 21.04 0.784 20.944C0.432 20.896 0.256 20.8 0.256 20.656C0.256 20.464 0.488 20.224 0.952 19.936C1.4 19.648 1.736 19.496 1.96 19.48C2.888 19.368 3.848 19.296 4.84 19.264C5.608 16.304 6.24 13.624 6.736 11.224C7.232 8.808 7.592 6.44 7.816 4.12C6.536 4.152 5.408 4.08 4.432 3.904C4.096 3.84 3.928 3.728 3.928 3.568C3.928 3.36 4.144 3.128 4.576 2.872C5.024 2.6 5.368 2.456 5.608 2.44C6.504 2.36 7.376 2.312 8.224 2.296L9.544 2.224H9.712C11.344 2.144 12.704 1.96 13.792 1.672ZM23.3466 5.464C23.4266 5.24 23.6346 5.048 23.9706 4.888C24.3066 4.712 24.6426 4.624 24.9786 4.624C25.4586 4.624 25.6986 4.792 25.6986 5.128C25.6986 5.176 25.6826 5.264 25.6506 5.392C24.9626 7.728 24.3546 9.512 23.8266 10.744C23.7306 10.984 23.5066 11.192 23.1546 11.368C22.8186 11.528 22.4826 11.608 22.1466 11.608C21.7466 11.608 21.5146 11.472 21.4506 11.2C21.1626 9.92 20.7146 9.28 20.1066 9.28C19.8186 9.28 19.4986 9.432 19.1466 9.736C18.3786 10.44 17.7706 11.392 17.3226 12.592C16.8906 13.792 16.6746 14.936 16.6746 16.024C16.6746 16.824 16.8106 17.544 17.0826 18.184C17.3546 18.808 17.8106 19.2 18.4506 19.36C18.5466 19.392 18.6986 19.408 18.9066 19.408C19.4346 19.408 19.9546 19.216 20.4666 18.832C20.9946 18.432 21.4266 18.024 21.7626 17.608C22.0986 17.176 22.5306 16.592 23.0586 15.856C23.1866 15.68 23.3866 15.544 23.6586 15.448C23.9306 15.336 24.2026 15.28 24.4746 15.28C24.7306 15.28 24.9306 15.328 25.0746 15.424C25.2346 15.504 25.3146 15.632 25.3146 15.808C25.3146 15.968 25.2586 16.136 25.1466 16.312C24.2986 17.64 23.2666 18.792 22.0506 19.768C20.8346 20.728 19.5546 21.208 18.2106 21.208C17.9386 21.208 17.6666 21.184 17.3946 21.136C16.3226 20.96 15.5226 20.44 14.9946 19.576C14.4666 18.696 14.2026 17.68 14.2026 16.528C14.2026 16.112 14.2426 15.664 14.3226 15.184C14.5786 13.648 15.0906 12.216 15.8586 10.888C16.6266 9.544 17.6346 8.56 18.8826 7.936C19.5066 7.632 20.1306 7.48 20.7546 7.48C21.3466 7.48 21.8906 7.64 22.3866 7.96L23.3466 5.464ZM29.6967 30.736C29.6327 30.768 29.6087 30.808 29.6247 30.856C29.6247 30.824 29.6487 30.784 29.6967 30.736ZM35.6247 6.952C35.6247 6.648 35.8087 6.384 36.1767 6.16C36.5447 5.936 36.9287 5.824 37.3287 5.824C37.5687 5.824 37.7607 5.88 37.9047 5.992C38.0647 6.088 38.1447 6.248 38.1447 6.472C38.1607 7.288 38.1047 8.088 37.9767 8.872C37.8647 9.64 37.6727 10.712 37.4007 12.088C37.2727 12.664 37.1847 13.088 37.1367 13.36C36.5767 16.368 35.8887 19.456 35.0727 22.624C34.6407 24.336 34.2487 25.736 33.8967 26.824C33.5607 27.928 33.1367 28.984 32.6247 29.992C32.3047 30.616 31.8887 31.168 31.3767 31.648C30.8647 32.144 30.3287 32.392 29.7687 32.392C29.3847 32.392 29.0087 32.256 28.6407 31.984C27.7287 31.28 27.2727 29.752 27.2727 27.4C27.2727 26.76 27.3127 25.84 27.3927 24.64C27.4087 24.336 27.6087 24.072 27.9927 23.848C28.3767 23.624 28.7687 23.512 29.1687 23.512C29.7127 23.512 29.9767 23.72 29.9607 24.136C29.9287 24.872 29.9127 25.432 29.9127 25.816C29.9127 26.696 29.9607 27.552 30.0567 28.384C30.0727 28.48 30.0967 28.64 30.1287 28.864C30.1767 29.088 30.2327 29.288 30.2967 29.464C30.3607 29.288 30.4487 29.104 30.5607 28.912C30.8967 28.176 31.1127 27.656 31.2087 27.352C31.5447 26.376 31.9607 24.96 32.4567 23.104C32.9047 21.392 33.2807 19.856 33.5847 18.496C32.7047 19.568 31.7527 20.232 30.7287 20.488C30.2327 20.6 29.8487 20.656 29.5767 20.656C27.7847 20.656 26.8887 19.304 26.8887 16.6C26.8887 14.552 27.4167 11.768 28.4727 8.248C28.5527 7.96 28.7767 7.704 29.1447 7.48C29.5127 7.24 29.8647 7.12 30.2007 7.12C30.6487 7.12 30.9127 7.328 30.9927 7.744C31.0247 7.92 30.9687 8.192 30.8247 8.56C30.6807 8.928 30.5927 9.168 30.5607 9.28C30.3047 10.24 30.1287 10.96 30.0327 11.44L29.9127 11.944C29.7207 12.76 29.5607 13.504 29.4327 14.176C29.3047 14.848 29.2407 15.496 29.2407 16.12C29.2407 17.256 29.4887 18.048 29.9847 18.496C30.1127 18.624 30.2647 18.688 30.4407 18.688C30.9527 18.688 31.4727 18.232 32.0007 17.32C32.5287 16.392 33.0647 15.32 33.6087 14.104C34.1527 12.856 34.5767 11.8 34.8807 10.936C35.2007 10.056 35.4167 9.176 35.5287 8.296C35.5607 7.976 35.5927 7.528 35.6247 6.952ZM58.0353 2.848C58.1473 2.752 58.3153 2.672 58.5393 2.608C58.7793 2.544 59.0193 2.512 59.2593 2.512C59.4993 2.512 59.6993 2.544 59.8593 2.608C60.0193 2.672 60.0993 2.768 60.0993 2.896C60.0993 3.008 60.0193 3.144 59.8593 3.304L50.4033 12.496L50.0913 12.76C52.3633 11.592 54.1233 11.008 55.3713 11.008C56.5073 11.008 57.2113 11.496 57.4833 12.472C57.5633 12.84 57.6033 13.168 57.6033 13.456C57.6033 13.872 57.5553 14.296 57.4593 14.728C57.3633 15.144 57.2273 15.632 57.0513 16.192C56.8433 16.912 56.6993 17.456 56.6193 17.824C56.5393 18.176 56.4993 18.56 56.4993 18.976C56.4993 19.12 56.5153 19.32 56.5473 19.576C56.7873 19.592 56.9793 19.64 57.1233 19.72C57.2833 19.8 57.3633 19.904 57.3633 20.032C57.3633 20.208 57.2113 20.424 56.9073 20.68L56.3073 21.184C56.1793 21.296 55.9713 21.408 55.6833 21.52C55.3953 21.632 55.1233 21.688 54.8673 21.688C54.4993 21.688 54.2593 21.544 54.1473 21.256C53.9713 20.776 53.8833 20.24 53.8833 19.648C53.8833 19.184 53.9233 18.72 54.0033 18.256C54.0993 17.776 54.2353 17.184 54.4113 16.48C54.6353 15.68 54.7873 14.992 54.8673 14.416C54.9153 13.984 54.9393 13.744 54.9393 13.696C54.9393 13.424 54.8833 13.216 54.7713 13.072C54.6753 12.912 54.4913 12.832 54.2193 12.832C53.8993 12.832 53.5153 12.936 53.0673 13.144C52.6353 13.352 52.3713 13.48 52.2753 13.528C51.5873 13.816 50.6993 14.248 49.6113 14.824C49.2113 16.776 48.7953 18.616 48.3633 20.344C48.2993 20.632 48.0513 20.88 47.6193 21.088C47.1873 21.296 46.7793 21.4 46.3953 21.4C46.1713 21.4 45.9953 21.36 45.8673 21.28C45.7553 21.184 45.7233 21.048 45.7713 20.872C45.8353 20.6 45.8753 20.416 45.8913 20.32C45.9873 19.904 46.1473 19.208 46.3713 18.232C46.5953 17.24 46.7873 16.36 46.9473 15.592C46.6753 15.48 46.5393 15.32 46.5393 15.112C46.5393 14.872 46.7553 14.624 47.1873 14.368C48.0193 10.096 48.4353 6.232 48.4353 2.776C48.4353 2.504 48.6353 2.256 49.0353 2.032C49.4513 1.792 49.8593 1.672 50.2593 1.672C50.4833 1.672 50.6593 1.72 50.7873 1.816C50.9313 1.912 51.0033 2.048 51.0033 2.224C51.0193 4.656 50.8353 7.248 50.4513 10C52.7233 7.712 55.2513 5.328 58.0353 2.848ZM64.9808 2.44C64.8048 2.392 64.6288 2.368 64.4528 2.368C64.1008 2.368 63.7888 2.456 63.5168 2.632C63.1648 2.824 62.9648 3.016 62.9168 3.208C62.7088 3.96 62.5728 4.456 62.5088 4.696V4.768C62.5088 4.848 62.5408 4.928 62.6048 5.008C62.6688 5.072 62.7408 5.12 62.8208 5.152C62.9488 5.216 63.0928 5.248 63.2528 5.248C63.5088 5.248 63.8128 5.176 64.1648 5.032C64.5328 4.872 64.7728 4.656 64.8848 4.384C64.9808 4.112 65.1168 3.632 65.2928 2.944V2.896C65.2928 2.816 65.2608 2.736 65.1968 2.656C65.1328 2.56 65.0608 2.488 64.9808 2.44ZM64.0448 12.064C63.9488 12.704 63.7648 13.864 63.4928 15.544C63.2368 17.208 63.0208 18.72 62.8448 20.08C62.7968 20.384 62.5808 20.648 62.1968 20.872C61.8288 21.08 61.4528 21.184 61.0688 21.184C60.8128 21.184 60.6128 21.136 60.4688 21.04C60.3408 20.928 60.2928 20.768 60.3248 20.56C60.5968 18.96 60.8848 17.136 61.1888 15.088C61.5088 13.024 61.7328 11.552 61.8608 10.672L62.3648 7.384C62.4128 7.096 62.6288 6.848 63.0128 6.64C63.4128 6.432 63.7968 6.328 64.1648 6.328C64.3888 6.328 64.5648 6.376 64.6928 6.472C64.8208 6.568 64.8688 6.704 64.8368 6.88L64.0448 12.064ZM74.0654 5.464C74.1454 5.24 74.3534 5.048 74.6894 4.888C75.0254 4.712 75.3614 4.624 75.6974 4.624C76.1774 4.624 76.4174 4.792 76.4174 5.128C76.4174 5.176 76.4014 5.264 76.3694 5.392C75.6814 7.728 75.0734 9.512 74.5454 10.744C74.4494 10.984 74.2254 11.192 73.8734 11.368C73.5374 11.528 73.2014 11.608 72.8654 11.608C72.4654 11.608 72.2334 11.472 72.1694 11.2C71.8814 9.92 71.4334 9.28 70.8254 9.28C70.5374 9.28 70.2174 9.432 69.8654 9.736C69.0974 10.44 68.4894 11.392 68.0414 12.592C67.6094 13.792 67.3934 14.936 67.3934 16.024C67.3934 16.824 67.5294 17.544 67.8014 18.184C68.0734 18.808 68.5294 19.2 69.1694 19.36C69.2654 19.392 69.4174 19.408 69.6254 19.408C70.1534 19.408 70.6734 19.216 71.1854 18.832C71.7134 18.432 72.1454 18.024 72.4814 17.608C72.8174 17.176 73.2494 16.592 73.7774 15.856C73.9054 15.68 74.1054 15.544 74.3774 15.448C74.6494 15.336 74.9214 15.28 75.1934 15.28C75.4494 15.28 75.6494 15.328 75.7934 15.424C75.9534 15.504 76.0334 15.632 76.0334 15.808C76.0334 15.968 75.9774 16.136 75.8654 16.312C75.0174 17.64 73.9854 18.792 72.7694 19.768C71.5534 20.728 70.2734 21.208 68.9294 21.208C68.6574 21.208 68.3854 21.184 68.1134 21.136C67.0414 20.96 66.2414 20.44 65.7134 19.576C65.1854 18.696 64.9214 17.68 64.9214 16.528C64.9214 16.112 64.9614 15.664 65.0414 15.184C65.2974 13.648 65.8094 12.216 66.5774 10.888C67.3454 9.544 68.3534 8.56 69.6014 7.936C70.2254 7.632 70.8494 7.48 71.4734 7.48C72.0654 7.48 72.6094 7.64 73.1054 7.96L74.0654 5.464ZM87.0522 10.552C87.6122 10.92 87.8922 11.528 87.8922 12.376C87.8922 12.904 87.7882 13.528 87.5802 14.248L87.3642 15.064C87.1242 15.928 86.8842 16.816 86.6442 17.728C86.4202 18.64 86.2362 19.488 86.0922 20.272C86.0442 20.56 85.8282 20.808 85.4442 21.016C85.0762 21.224 84.7002 21.328 84.3162 21.328C84.0762 21.328 83.8922 21.28 83.7642 21.184C83.6362 21.088 83.5882 20.944 83.6202 20.752C83.8122 19.744 84.1802 18.248 84.7242 16.264L85.2522 14.272C85.4122 13.632 85.4922 13.168 85.4922 12.88C85.4922 12.656 85.4522 12.48 85.3722 12.352C85.1802 12.064 84.8682 11.92 84.4362 11.92C84.0682 11.92 83.5962 12.024 83.0202 12.232C82.3162 12.44 81.4202 12.848 80.3322 13.456L79.9002 19.552C79.8842 19.856 79.6762 20.12 79.2762 20.344C78.8922 20.568 78.5002 20.68 78.1002 20.68C77.8442 20.68 77.6442 20.632 77.5002 20.536C77.3722 20.424 77.3162 20.264 77.3322 20.056C77.5242 17.784 77.6602 16.08 77.7402 14.944C77.5002 14.928 77.3002 14.88 77.1402 14.8C76.9802 14.72 76.9002 14.608 76.9002 14.464C76.9002 14.256 77.0282 14.032 77.2842 13.792C77.4282 13.68 77.6282 13.496 77.8842 13.24C78.2202 9.08 78.5002 5.296 78.7242 1.888C78.7402 1.6 78.9402 1.352 79.3242 1.144C79.7242 0.92 80.1162 0.808 80.5002 0.808C80.7402 0.808 80.9242 0.855999 81.0522 0.951999C81.1962 1.048 81.2602 1.192 81.2442 1.384C80.9882 4.52 80.7482 7.664 80.5242 10.816C82.3642 9.12 84.1482 7.592 85.8762 6.232C86.0202 6.12 86.1962 6.04 86.4042 5.992C86.6282 5.928 86.8442 5.896 87.0522 5.896C87.2922 5.896 87.4842 5.936 87.6282 6.016C87.7882 6.08 87.8682 6.184 87.8682 6.328C87.8682 6.52 87.7402 6.72 87.4842 6.928L85.1082 9.064L83.5722 10.456C84.3722 10.232 85.0282 10.12 85.5402 10.12C86.1482 10.12 86.6522 10.264 87.0522 10.552ZM93.2089 9.76C93.2089 10.368 93.3609 10.904 93.6649 11.368C93.9849 11.832 94.3689 12.224 94.8169 12.544C95.2649 12.864 95.8729 13.24 96.6409 13.672C97.6809 14.264 98.4729 14.8 99.0169 15.28C99.5769 15.76 99.9449 16.36 100.121 17.08C100.185 17.4 100.217 17.632 100.217 17.776C100.217 18.896 99.6249 19.704 98.4409 20.2C97.2569 20.68 95.9129 20.92 94.4089 20.92C93.8169 20.92 93.2969 20.88 92.8489 20.8C92.3209 20.704 91.7689 20.52 91.1929 20.248C90.6329 19.96 90.1609 19.616 89.7769 19.216C89.4089 18.8 89.2249 18.376 89.2249 17.944C89.2249 17.272 89.7449 16.656 90.7849 16.096C91.0729 15.952 91.3529 15.88 91.6249 15.88C91.8809 15.88 92.0889 15.936 92.2489 16.048C92.4249 16.16 92.5129 16.296 92.5129 16.456C92.5129 16.744 92.2809 17.024 91.8169 17.296C91.7209 17.344 91.6729 17.416 91.6729 17.512C91.6729 17.704 91.8249 17.936 92.1289 18.208C92.4329 18.48 92.6729 18.664 92.8489 18.76C93.3289 19.032 94.0969 19.2 95.1529 19.264C95.2809 19.28 95.5049 19.288 95.8249 19.288C96.4009 19.288 96.8649 19.192 97.2169 19C97.5689 18.808 97.7209 18.456 97.6729 17.944C97.6089 17.256 96.9129 16.48 95.5849 15.616L94.6729 15.04C93.8409 14.528 93.1529 14.08 92.6089 13.696C92.0809 13.296 91.6249 12.824 91.2409 12.28C90.8569 11.72 90.6649 11.096 90.6649 10.408C90.6649 9.976 90.7449 9.544 90.9049 9.112C91.2569 8.072 91.9129 7.272 92.8729 6.712C93.8329 6.136 94.8649 5.848 95.9689 5.848C97.1049 5.848 98.0569 6.136 98.8249 6.712C99.6089 7.288 100.001 8.104 100.001 9.16C100.001 9.496 99.9529 9.856 99.8569 10.24C99.7929 10.528 99.5529 10.776 99.1369 10.984C98.7209 11.192 98.3289 11.296 97.9609 11.296C97.7369 11.296 97.5609 11.248 97.4329 11.152C97.3209 11.056 97.2969 10.92 97.3609 10.744C97.4569 10.408 97.5049 10.072 97.5049 9.736C97.5049 9.208 97.3689 8.76 97.0969 8.392C96.8249 8.024 96.4249 7.768 95.8969 7.624C95.6089 7.56 95.3929 7.528 95.2489 7.528C94.6729 7.528 94.1849 7.736 93.7849 8.152C93.4009 8.552 93.2089 9.088 93.2089 9.76Z" fill="#F4FFFB"/>
</svg>
