<svg width="26" height="25" viewBox="0 0 26 25" fill="none" xmlns="http://www.w3.org/2000/svg">
<path d="M16.9513 2.80046H8.41055C6.74172 2.80231 5.14182 3.4296 3.96187 4.5447C2.78193 5.65979 2.11832 7.17161 2.11664 8.74846L2.11664 16.8185C2.1186 18.3953 2.78248 19.907 3.96262 21.0219C5.14276 22.1368 6.74277 22.7639 8.41161 22.7655H16.9524C18.6212 22.7636 20.2211 22.1363 21.401 21.0212C22.581 19.9061 23.2446 18.3943 23.2463 16.8175V8.74746C23.2443 7.17061 22.5804 5.6589 21.4003 4.54399C20.2201 3.42908 18.6201 2.80205 16.9513 2.80046V2.80046ZM21.1211 16.8175C21.1211 17.3349 21.0133 17.8472 20.8037 18.3252C20.5942 18.8033 20.287 19.2376 19.8998 19.6035C19.5126 19.9693 19.0529 20.2595 18.547 20.4575C18.0411 20.6556 17.4989 20.7575 16.9513 20.7575H8.41055C7.30482 20.7572 6.24448 20.342 5.46271 19.6031C4.68095 18.8642 4.24177 17.8622 4.24177 16.8175V8.74746C4.24205 7.70268 4.6815 6.70078 5.46346 5.96211C6.24543 5.22343 7.30588 4.80846 8.41161 4.80846H16.9524C18.0581 4.80873 19.1184 5.22395 19.9002 5.96281C20.682 6.70168 21.1211 7.70368 21.1211 8.74846V16.8185V16.8175Z" fill="#F4FFFB" fill-opacity="0.97"/>
<path d="M12.681 7.61946C11.2325 7.62158 9.84412 8.16625 8.82004 9.13407C7.79597 10.1019 7.21979 11.4139 7.21783 12.7825C7.21951 14.1514 7.79571 15.4638 8.82005 16.4319C9.84438 17.3999 11.2332 17.9446 12.682 17.9465C14.131 17.9449 15.5201 17.4003 16.5447 16.4322C17.5692 15.4641 18.1456 14.1516 18.1472 12.7825C18.145 11.4135 17.5683 10.1013 16.5435 9.13366C15.5188 8.16596 14.1297 7.62178 12.681 7.62046V7.61946ZM12.681 15.9385C11.7954 15.9385 10.9461 15.6061 10.3199 15.0144C9.6937 14.4227 9.34191 13.6202 9.34191 12.7835C9.34191 11.9467 9.6937 11.1442 10.3199 10.5525C10.9461 9.96086 11.7954 9.62846 12.681 9.62846C13.5665 9.62846 14.4158 9.96086 15.042 10.5525C15.6682 11.1442 16.02 11.9467 16.02 12.7835C16.02 13.6202 15.6682 14.4227 15.042 15.0144C14.4158 15.6061 13.5665 15.9385 12.681 15.9385Z" fill="#F4FFFB" fill-opacity="0.97"/>
<path d="M18.1568 8.89546C18.8798 8.89546 19.4659 8.34164 19.4659 7.65846C19.4659 6.97529 18.8798 6.42146 18.1568 6.42146C17.4337 6.42146 16.8476 6.97529 16.8476 7.65846C16.8476 8.34164 17.4337 8.89546 18.1568 8.89546Z" fill="#F4FFFB" fill-opacity="0.97"/>
</svg>
