<svg width="1102" height="219" viewBox="0 0 1102 219" fill="none" xmlns="http://www.w3.org/2000/svg">
<path d="M36.926 5.672C39.466 3.63999 42.26 2.36999 45.308 1.86198H46.07C48.7793 1.86198 50.5573 3.04732 51.404 5.41798C52.42 7.28066 53.0973 9.82066 53.436 13.038C53.7747 14.7313 53.944 15.9167 53.944 16.594C56.3147 24.8913 58.4313 32.1727 60.294 38.438C62.326 44.534 64.0193 49.6987 65.374 53.932C66.7287 58.504 68.8453 65.4467 71.724 74.76C74.6027 83.904 77.058 92.032 79.09 99.144C79.7673 101.345 80.1907 102.785 80.36 103.462C80.36 98.7207 80.1907 91.6087 79.852 82.126L79.598 71.458L79.344 64.854C79.1747 57.9113 78.836 52.154 78.328 47.582C77.9893 43.01 77.2273 38.5227 76.042 34.12C76.042 29.7173 76.7193 25.8227 78.074 22.436L81.122 15.832C82.9847 12.276 85.7787 8.71999 89.504 5.16399C92.2133 2.79332 95.1767 1.35399 98.394 0.845997C101.273 0.845997 103.474 2.116 104.998 4.65599C107.538 11.26 108.977 18.4567 109.316 26.246C109.316 30.9873 109.401 34.4587 109.57 36.66C109.57 45.4653 109.655 51.9847 109.824 56.218C109.824 65.5313 109.655 79.332 109.316 97.62C109.316 106.933 108.808 120.734 107.792 139.022L107.538 144.356C107.369 146.219 107.115 149.436 106.776 154.008C106.607 158.58 106.268 162.644 105.76 166.2C104.236 177.545 102.373 186.52 100.172 193.124C98.3093 198.035 96.616 201.845 95.092 204.554C93.3987 207.771 90.52 211.243 86.456 214.968C83.5773 217.508 80.7833 218.778 78.074 218.778C77.058 218.778 76.042 218.524 75.026 218.016C72.3167 216.661 70.0307 213.105 68.168 207.348C66.644 202.607 65.12 197.019 63.596 190.584C62.58 185.843 61.9027 182.287 61.564 179.916C59.7013 170.433 58.3467 163.999 57.5 160.612C55.6373 151.129 52.5047 137.075 48.102 118.448C42.514 152.992 33.878 181.609 22.194 204.3C21.0087 206.84 19.3153 209.211 17.114 211.412C15.082 213.613 12.9653 215.222 10.764 216.238C9.57867 216.915 8.224 217.254 6.7 217.254C5.34533 217.254 4.32933 217.085 3.652 216.746C1.45067 215.222 0.35 212.597 0.35 208.872C0.35 207.348 0.434667 206.247 0.604 205.57C1.45067 201.337 2.80533 197.611 4.668 194.394L5.176 193.378C8.224 186.435 10.9333 178.815 13.304 170.518C16.0133 159.173 18.13 147.489 19.654 135.466C21.178 123.443 22.5327 109.727 23.718 94.318C24.0567 85.8513 24.226 79.6707 24.226 75.776L23.972 62.568C23.972 59.52 23.8873 57.1493 23.718 55.456C23.718 54.2707 23.6333 52.8313 23.464 51.138C23.464 49.2753 23.5487 47.1587 23.718 44.788C23.718 39.0307 23.8027 34.5433 23.972 31.326C24.3107 27.9393 25.0727 24.722 26.258 21.674C28.9673 14.7313 32.5233 9.39732 36.926 5.672ZM132.803 71.458C132.972 68.0713 135.428 65.108 140.169 62.568C144.91 59.8587 149.652 58.504 154.393 58.504C157.102 58.504 159.304 59.0967 160.997 60.282C162.69 61.298 163.452 62.9913 163.283 65.362L155.917 203.284C155.748 206.84 153.292 209.973 148.551 212.682C143.81 215.222 139.068 216.492 134.327 216.492C128.062 216.492 125.014 214.037 125.183 209.126L132.803 71.458ZM132.295 37.93C131.956 40.3007 132.549 42.0787 134.073 43.264C135.766 44.4493 137.968 45.042 140.677 45.042C145.249 45.042 149.906 43.772 154.647 41.232C159.388 38.692 162.013 35.644 162.521 32.088C163.876 23.6213 164.807 17.2713 165.315 13.038C165.992 8.80465 163.368 6.68798 157.441 6.68798C152.869 6.68798 148.128 7.95799 143.217 10.498C138.306 13.038 135.682 15.9167 135.343 19.134L132.295 37.93ZM261.117 105.494C261.794 102.107 264.334 99.2287 268.737 96.858C273.309 94.4873 277.796 93.302 282.199 93.302C287.956 93.302 290.496 95.5033 289.819 99.906L288.803 105.748C286.263 120.141 283.638 132.333 280.929 142.324C278.389 152.145 274.409 161.713 268.991 171.026C263.741 180.339 256.799 187.705 248.163 193.124C236.987 200.236 225.557 203.792 213.873 203.792C206.93 203.792 200.411 202.353 194.315 199.474C188.388 196.595 183.393 192.108 179.329 186.012C172.217 175.513 168.661 163.491 168.661 149.944C168.661 131.656 175.18 110.489 188.219 86.444C192.621 78.1467 197.193 71.5427 201.935 66.632C206.845 61.7213 212.941 58.758 220.223 57.742C220.9 57.5727 221.831 57.488 223.017 57.488C225.726 57.488 228.097 57.996 230.129 59.012C235.209 47.836 239.103 39.454 241.813 33.866C242.998 31.326 245.792 29.1247 250.195 27.262C254.767 25.3993 259 24.468 262.895 24.468C267.975 24.468 270.515 26.0767 270.515 29.294C270.515 29.9713 270.261 30.9873 269.753 32.342C258.069 60.79 248.586 82.888 241.305 98.636C240.119 101.345 237.325 103.631 232.923 105.494C228.689 107.357 224.541 108.288 220.477 108.288C217.767 108.288 215.566 107.865 213.873 107.018C212.179 106.171 211.333 104.817 211.333 102.954C211.333 101.769 211.671 100.499 212.349 99.144L216.159 90.508C215.312 90.3387 214.55 89.9153 213.873 89.238L208.793 101.176C204.051 111.505 200.919 121.835 199.395 132.164C198.887 135.381 198.633 138.683 198.633 142.07C198.633 149.351 199.733 156.209 201.935 162.644C204.136 169.079 207.607 174.243 212.349 178.138C216.243 181.525 220.053 183.218 223.779 183.218C238.68 183.218 251.126 157.31 261.117 105.494ZM394.286 181.186C396.826 182.033 398.096 183.557 398.096 185.758C398.096 188.467 396.487 191.431 393.27 194.648C389.714 198.204 385.142 199.982 379.554 199.982C376.845 199.982 374.559 199.643 372.696 198.966C363.721 196.087 355.593 194.648 348.312 194.648C335.612 194.648 322.658 198.712 309.45 206.84C307.249 208.364 304.539 209.634 301.322 210.65C298.274 211.497 295.395 211.92 292.686 211.92C290.146 211.92 288.114 211.497 286.59 210.65C285.066 209.634 284.304 208.11 284.304 206.078C284.304 204.893 284.473 203.877 284.812 203.03C289.723 189.314 293.617 176.953 296.496 165.946C299.544 154.939 301.576 143.763 302.592 132.418C304.116 117.178 304.878 106.002 304.878 98.89C304.878 80.094 301.237 65.7007 293.956 55.71C293.109 54.694 292.686 53.3393 292.686 51.646C292.686 48.2593 295.057 45.1267 299.798 42.248C304.539 39.2 309.196 37.676 313.768 37.676C316.816 37.676 319.017 38.3533 320.372 39.708C322.573 40.5547 324.013 41.9093 324.69 43.772C328.923 54.948 334.765 64.4307 342.216 72.22C349.667 79.84 358.472 83.65 368.632 83.65C370.495 83.65 373.289 83.3113 377.014 82.634C379.385 82.2953 380.909 82.126 381.586 82.126C384.465 82.126 386.581 82.8033 387.936 84.158C389.46 85.3433 390.222 87.0367 390.222 89.238C390.222 91.6087 389.206 93.9793 387.174 96.35C385.311 98.7207 382.771 100.414 379.554 101.43C372.611 103.801 365.669 104.986 358.726 104.986C350.429 104.986 342.47 103.293 334.85 99.906C334.511 109.389 334.088 116.501 333.58 121.242L331.802 137.244C338.406 136.059 345.01 135.043 351.614 134.196L355.17 133.942C361.943 133.942 365.33 136.228 365.33 140.8C365.33 143.848 363.637 146.557 360.25 148.928C356.863 151.299 353.392 152.823 349.836 153.5C344.587 154.516 337.39 155.617 328.246 156.802C326.383 165.099 324.351 172.889 322.15 180.17C333.326 176.106 344.671 174.074 356.186 174.074C368.886 174.074 381.586 176.445 394.286 181.186ZM620.562 160.104C621.409 161.12 623.356 163.321 626.404 166.708C629.622 170.095 632.162 173.566 634.024 177.122C636.056 180.509 637.072 183.811 637.072 187.028C637.072 191.092 635.548 194.902 632.5 198.458C628.775 203.03 624.203 205.316 618.784 205.316C616.414 205.316 613.789 204.977 610.91 204.3C608.032 203.623 606.169 203.199 605.322 203.03C591.945 200.321 576.366 198.966 558.586 198.966C544.87 198.966 530.308 199.643 514.898 200.998C513.544 201.167 511.596 201.337 509.056 201.506C506.516 201.675 504.23 201.76 502.198 201.76C496.102 201.76 491.192 200.829 487.466 198.966C483.91 196.934 482.132 193.293 482.132 188.044C482.132 184.996 482.725 181.779 483.91 178.392C485.096 174.836 486.874 170.603 489.244 165.692L491.53 160.358C494.07 154.093 496.864 149.351 499.912 146.134C502.96 142.747 507.278 141.054 512.866 141.054C517.438 141.054 520.994 142.578 523.534 145.626C526.244 148.505 527.598 152.145 527.598 156.548C527.598 159.596 526.836 162.644 525.312 165.692C535.98 165.015 548.088 164.676 561.634 164.676C569.593 164.676 575.604 164.761 579.668 164.93C564.09 145.287 552.49 130.471 544.87 120.48L527.344 98.382C524.635 94.9953 522.349 92.3707 520.486 90.508C514.221 83.2267 509.48 77.046 506.262 71.966C503.045 66.7167 501.436 61.3827 501.436 55.964C501.436 50.884 503.214 46.82 506.77 43.772C510.496 40.5547 514.814 38.184 519.724 36.66C524.804 34.9667 531.154 33.358 538.774 31.834L549.442 29.548C562.82 26.1613 576.62 23.1133 590.844 20.404C592.03 20.2347 594.4 19.8113 597.956 19.134C603.714 17.61 608.794 16.848 613.196 16.848C618.784 16.848 623.018 18.372 625.896 21.42C628.944 24.6373 630.468 27.9393 630.468 31.326C630.468 34.5433 629.452 37.7607 627.42 40.978C625.558 44.1953 622.51 48.4287 618.276 53.678C613.196 59.774 609.979 64.2613 608.624 67.14C606.423 71.8813 604.052 75.8607 601.512 79.078C599.142 82.2953 596.432 83.904 593.384 83.904C591.183 83.904 588.982 83.0573 586.78 81.364C584.41 79.5013 583.224 76.9613 583.224 73.744C583.224 71.3733 583.732 68.918 584.748 66.378C585.934 63.6687 587.034 61.2133 588.05 59.012C589.236 56.8107 589.998 55.456 590.336 54.948C581.7 56.472 568.916 59.4353 551.982 63.838C549.95 64.5153 545.802 65.616 539.536 67.14L570.016 102.192C596.094 131.825 612.942 151.129 620.562 160.104ZM705.918 71.204C705.918 67.648 708.12 64.6 712.522 62.06C716.925 59.52 721.497 58.25 726.238 58.25C729.117 58.25 731.403 58.8427 733.096 60.028C734.79 61.044 735.552 62.7373 735.382 65.108C735.044 79.6707 734.705 101.684 734.366 131.148L733.096 197.442C732.927 201.167 730.556 204.385 725.984 207.094C721.582 209.803 717.01 211.158 712.268 211.158C709.22 211.158 706.765 210.565 704.902 209.38C703.209 208.025 702.362 206.078 702.362 203.538L703.378 161.882C702.701 162.051 701.685 162.136 700.33 162.136L695.25 161.882C694.065 161.713 692.287 161.628 689.916 161.628C688.731 161.628 687.292 161.797 685.598 162.136C684.752 179.069 683.566 193.463 682.042 205.316C681.704 208.872 679.079 212.005 674.168 214.714C669.427 217.423 664.686 218.778 659.944 218.778C657.066 218.778 654.78 218.185 653.086 217C651.562 215.815 650.885 214.037 651.054 211.666C653.594 188.298 655.203 166.962 655.88 147.658L656.134 140.038C656.642 125.306 656.896 115.569 656.896 110.828C656.896 95.588 655.965 86.19 654.102 82.634C651.393 82.8033 649.276 82.38 647.752 81.364C646.398 80.1787 645.72 78.7393 645.72 77.046C645.72 75.3527 646.398 73.5747 647.752 71.712C649.107 69.8493 650.8 68.3253 652.832 67.14C659.267 63.584 664.77 61.806 669.342 61.806C673.068 61.806 676.37 62.9913 679.248 65.362C683.651 69.0873 685.852 76.8767 685.852 88.73L685.598 101.43C686.106 110.066 686.36 118.787 686.36 127.592L686.106 142.578C687.122 142.239 688.731 142.239 690.932 142.578C693.134 142.917 694.827 143.086 696.012 143.086C697.198 143.086 698.552 143.001 700.076 142.832C701.6 142.493 702.955 142.239 704.14 142.07L705.918 71.204ZM825.9 153.754C829.794 144.61 831.742 135.212 831.742 125.56C831.742 117.94 830.387 110.997 827.678 104.732C825.138 98.2973 821.074 93.048 815.486 88.984C811.76 86.2747 808.204 84.92 804.818 84.92C803.463 84.92 801.77 85.2587 799.738 85.936C801.262 86.6133 802.024 87.7987 802.024 89.492C802.024 90.508 801.685 91.6933 801.008 93.048C797.113 100.499 794.065 108.627 791.864 117.432C789.662 126.068 788.562 134.789 788.562 143.594C788.562 153.754 790.086 163.406 793.134 172.55C795.166 177.63 797.282 181.609 799.484 184.488C800.5 185.673 801.516 186.52 802.532 187.028C807.442 183.641 811.845 178.9 815.74 172.804C819.804 166.708 823.19 160.358 825.9 153.754ZM822.344 64.6C830.641 66.2933 837.753 69.934 843.68 75.522C849.606 81.11 854.094 87.8833 857.142 95.842C860.19 103.631 861.714 111.759 861.714 120.226C861.714 130.217 859.766 140.461 855.872 150.96C851.977 161.459 846.643 171.111 839.87 179.916C833.096 188.721 825.561 195.664 817.264 200.744C809.474 205.485 801.854 207.856 794.404 207.856C786.953 207.856 780.434 205.57 774.846 200.998C769.258 196.426 765.194 189.822 762.654 181.186C759.775 172.381 758.336 162.475 758.336 151.468C758.336 144.864 758.844 138.429 759.86 132.164C758.674 132.503 756.896 132.672 754.526 132.672C748.768 132.672 745.89 130.725 745.89 126.83C745.89 125.475 746.059 124.375 746.398 123.528C752.155 107.441 760.791 93.4713 772.306 81.618C783.99 69.5953 797.367 63.584 812.438 63.584C814.639 63.584 817.941 63.9227 822.344 64.6ZM978.188 181.186C980.728 182.033 981.998 183.557 981.998 185.758C981.998 188.467 980.39 191.431 977.172 194.648C973.616 198.204 969.044 199.982 963.456 199.982C960.747 199.982 958.461 199.643 956.598 198.966C947.624 196.087 939.496 194.648 932.214 194.648C919.514 194.648 906.56 198.712 893.352 206.84C891.151 208.364 888.442 209.634 885.224 210.65C882.176 211.497 879.298 211.92 876.588 211.92C874.048 211.92 872.016 211.497 870.492 210.65C868.968 209.634 868.206 208.11 868.206 206.078C868.206 204.893 868.376 203.877 868.714 203.03C873.625 189.314 877.52 176.953 880.398 165.946C883.446 154.939 885.478 143.763 886.494 132.418C888.018 117.178 888.78 106.002 888.78 98.89C888.78 80.094 885.14 65.7007 877.858 55.71C877.012 54.694 876.588 53.3393 876.588 51.646C876.588 48.2593 878.959 45.1267 883.7 42.248C888.442 39.2 893.098 37.676 897.67 37.676C900.718 37.676 902.92 38.3533 904.274 39.708C906.476 40.5547 907.915 41.9093 908.592 43.772C912.826 54.948 918.668 64.4307 926.118 72.22C933.569 79.84 942.374 83.65 952.534 83.65C954.397 83.65 957.191 83.3113 960.916 82.634C963.287 82.2953 964.811 82.126 965.488 82.126C968.367 82.126 970.484 82.8033 971.838 84.158C973.362 85.3433 974.124 87.0367 974.124 89.238C974.124 91.6087 973.108 93.9793 971.076 96.35C969.214 98.7207 966.674 100.414 963.456 101.43C956.514 103.801 949.571 104.986 942.628 104.986C934.331 104.986 926.372 103.293 918.752 99.906C918.414 109.389 917.99 116.501 917.482 121.242L915.704 137.244C922.308 136.059 928.912 135.043 935.516 134.196L939.072 133.942C945.846 133.942 949.232 136.228 949.232 140.8C949.232 143.848 947.539 146.557 944.152 148.928C940.766 151.299 937.294 152.823 933.738 153.5C928.489 154.516 921.292 155.617 912.148 156.802C910.286 165.099 908.254 172.889 906.052 180.17C917.228 176.106 928.574 174.074 940.088 174.074C952.788 174.074 965.488 176.445 978.188 181.186ZM1070.94 97.112C1067.72 94.4027 1062.13 90.8467 1054.17 86.444C1046.38 81.872 1040.37 79.586 1036.14 79.586C1032.75 79.586 1031.06 81.2793 1031.06 84.666C1031.06 85.8513 1031.48 87.8833 1032.33 90.762C1033.52 94.6567 1036.14 98.382 1040.2 101.938C1044.27 105.325 1049.6 109.304 1056.21 113.876C1061.62 117.601 1065.1 120.141 1066.62 121.496C1074.07 127.931 1080 133.349 1084.4 137.752C1088.8 141.985 1092.78 147.065 1096.34 152.992C1100.06 158.749 1101.93 164.676 1101.93 170.772C1101.93 174.836 1100.91 179.069 1098.88 183.472C1094.98 191.431 1088.55 197.527 1079.57 201.76C1070.77 205.993 1061.37 208.11 1051.38 208.11C1047.99 208.11 1044.61 207.856 1041.22 207.348C1018.19 203.453 996.94 188.129 977.466 161.374C976.45 159.85 975.942 158.326 975.942 156.802C975.942 153.077 978.398 149.69 983.308 146.642C988.388 143.425 993.384 141.816 998.294 141.816C1002.02 141.816 1004.73 142.917 1006.42 145.118C1016.92 159.342 1027.25 169.756 1037.41 176.36C1046.72 182.456 1054.6 185.504 1061.03 185.504C1066.28 185.504 1068.91 183.218 1068.91 178.646C1068.91 175.429 1067.64 171.449 1065.1 166.708C1062.56 162.136 1059.25 157.818 1055.19 153.754C1051.13 149.69 1045.96 145.033 1039.7 139.784L1032.84 133.942C1032.16 133.265 1029.03 130.809 1023.44 126.576C1018.87 123.189 1014.97 120.057 1011.76 117.178C1008.54 114.299 1005.83 111.167 1003.63 107.78C1000.75 103.208 999.31 98.4667 999.31 93.556C999.31 85.936 1002.53 78.9933 1008.96 72.728C1015.57 66.2933 1023.1 61.8907 1031.57 59.52C1036.99 57.996 1042.15 57.234 1047.06 57.234C1056.21 57.234 1065.01 59.3507 1073.48 63.584C1082.11 67.8173 1090.83 73.6593 1099.64 81.11C1101.16 82.2953 1101.93 83.7347 1101.93 85.428C1101.93 88.6453 1099.3 91.778 1094.05 94.826C1088.8 97.874 1083.64 99.398 1078.56 99.398C1075.17 99.398 1072.63 98.636 1070.94 97.112Z" fill="#F4FFFB" fill-opacity="0.23"/>
</svg>
