<svg width="26" height="24" viewBox="0 0 26 24" fill="none" xmlns="http://www.w3.org/2000/svg">
<path d="M20.7784 7.99705C20.7922 8.17205 20.7922 8.34605 20.7922 8.52005C20.7922 13.8451 16.5028 19.9811 8.66368 19.9811C6.24856 19.9811 4.00489 19.3201 2.11682 18.1721C2.45972 18.2091 2.78992 18.2221 3.14658 18.2221C5.06533 18.2264 6.92975 17.6202 8.43931 16.5011C7.5497 16.4858 6.68732 16.2085 5.97259 15.7078C5.25785 15.2071 4.72645 14.508 4.45257 13.7081C4.71609 13.7451 4.98067 13.7701 5.25796 13.7701C5.64002 13.7701 6.02419 13.7201 6.38085 13.6331C5.4154 13.4489 4.54726 12.9544 3.92405 12.2337C3.30085 11.5131 2.96105 10.6107 2.96243 9.68005V9.63005C3.53076 9.92905 4.1901 10.1161 4.8886 10.1411C4.30343 9.77364 3.82362 9.27507 3.49196 8.68984C3.1603 8.10461 2.9871 7.4509 2.98783 6.78705C2.98783 6.03905 3.19844 5.35305 3.5678 4.75504C4.63898 6.00007 5.97498 7.01861 7.48928 7.74471C9.00358 8.4708 10.6624 8.88826 12.3583 8.97005C12.2927 8.67005 12.2525 8.35905 12.2525 8.04705C12.2522 7.51801 12.3623 6.99411 12.5764 6.50529C12.7906 6.01647 13.1046 5.57232 13.5005 5.19823C13.8964 4.82415 14.3664 4.52745 14.8838 4.32512C15.4011 4.12279 15.9556 4.01878 16.5155 4.01904C17.7431 4.01904 18.8512 4.50504 19.6301 5.29104C20.5845 5.11666 21.4997 4.78747 22.3352 4.31804C22.0171 5.24886 21.3507 6.03815 20.4609 6.53805C21.3074 6.44683 22.1346 6.2365 22.9152 5.91405C22.3322 6.71715 21.6098 7.42139 20.7784 7.99705Z" fill="#F4FFFB" fill-opacity="0.97"/>
</svg>
